<?xml version="1.0" standalone="no"?>
<!DOCTYPE svg PUBLIC "-//W3C//DTD SVG 20010904//EN"
 "http://www.w3.org/TR/2001/REC-SVG-20010904/DTD/svg10.dtd">
<svg version="1.0" xmlns="http://www.w3.org/2000/svg"
 width="250" height="37" viewBox="0 0 381.000000 132.000000"
 preserveAspectRatio="xMidYMid meet">

<g transform="translate(0.000000,132.000000) scale(0.100000,-0.100000)"
fill="#000000" stroke="none">
<path d="M344 1209 c-90 -26 -102 -108 -37 -254 22 -49 44 -105 48 -124 6 -31
5 -33 -11 -27 -105 42 -206 43 -266 3 -92 -62 -91 -212 3 -274 46 -30 138 -41
194 -23 60 20 118 85 140 158 14 47 23 61 34 57 8 -3 68 -39 133 -81 235 -148
361 -195 440 -161 43 18 78 68 78 110 0 33 -48 87 -76 87 -16 0 -15 -2 4 -16
28 -19 29 -63 3 -95 -17 -21 -28 -24 -95 -24 l-75 0 -214 109 -215 110 -6 43
c-3 25 -31 94 -61 155 -65 132 -72 183 -29 217 36 28 70 26 100 -5 20 -19 24
-31 19 -52 -10 -40 -22 -49 -46 -34 -24 15 -34 10 -26 -13 9 -22 34 -18 62 10
41 40 26 106 -28 125 -34 11 -31 11 -73 -1z m-99 -389 c22 -6 57 -18 78 -27
31 -14 37 -21 37 -48 0 -51 -45 -128 -89 -153 -125 -71 -278 39 -217 156 36
69 103 94 191 72z"/>
<path d="M1410 1045 c0 -29 -4 -35 -22 -36 -17 -1 -19 -2 -5 -6 9 -2 17 -5 17
-6 0 -1 -15 -37 -34 -81 -52 -119 -109 -166 -161 -132 -46 30 -18 146 35 146
34 0 32 -21 -6 -57 l-38 -36 32 17 c57 29 69 89 19 98 -48 9 -108 -30 -132
-88 -16 -38 -60 -81 -93 -89 -27 -7 -72 17 -71 38 0 6 21 26 47 42 53 34 68
76 34 94 -26 14 -83 -3 -108 -31 -44 -50 -51 -70 -41 -109 19 -78 114 -86 191
-18 l34 29 6 -26 c5 -17 19 -30 43 -41 47 -19 96 -6 141 38 29 29 32 30 32 10
0 -11 9 -30 21 -42 26 -26 64 -19 97 17 12 13 17 19 10 14 -20 -16 -56 -12
-60 8 -4 19 5 70 28 150 15 52 16 52 57 54 l42 1 -37 4 c-32 4 -38 8 -38 27 0
22 -17 46 -32 46 -4 0 -8 -16 -8 -35z m-370 -124 c0 -23 -15 -42 -47 -62 -19
-12 -37 -19 -40 -15 -9 9 18 65 36 76 21 12 51 13 51 1z"/>
<path d="M1698 993 c-9 -10 -34 -54 -56 -99 -58 -116 -154 -255 -213 -308 -61
-55 -121 -75 -159 -54 -34 19 -38 61 -8 82 12 9 17 16 11 16 -7 0 -24 -10 -38
-23 -52 -44 -26 -137 42 -150 95 -18 206 93 335 336 33 62 57 104 54 94 -37
-117 -72 -313 -61 -347 7 -22 55 -28 55 -7 0 25 69 157 129 246 60 88 93 125
77 85 -50 -125 -63 -299 -29 -374 67 -148 220 -176 573 -104 168 34 288 38
319 10 27 -25 27 -61 -1 -80 -17 -12 -18 -16 -7 -16 22 0 68 47 75 77 10 37
-12 72 -54 90 -34 15 -45 15 -127 0 -49 -9 -144 -32 -210 -52 -160 -48 -258
-62 -337 -47 -81 15 -123 45 -155 111 -24 48 -27 65 -26 150 1 105 22 212 54
279 23 47 20 72 -11 72 -23 0 -146 -167 -218 -298 l-44 -77 7 64 c8 76 49 240
71 284 15 28 15 31 -2 44 -23 17 -28 16 -46 -4z"/>
<path d="M795 944 c-10 -11 -14 -25 -11 -38 19 -63 18 -72 -9 -104 -53 -63
-85 -31 -64 63 12 55 9 70 -19 77 -17 4 -42 -62 -49 -124 -4 -41 -2 -48 20
-63 36 -23 69 -11 119 44 37 40 43 54 46 98 4 56 -7 72 -33 47z"/>
<path d="M520 932 c0 -9 -11 -38 -25 -64 -34 -64 -33 -105 3 -119 35 -14 84
11 121 61 l26 35 -44 -39 c-36 -32 -45 -36 -56 -25 -11 12 -11 25 3 76 13 51
14 64 3 77 -18 21 -31 20 -31 -2z"/>
<path d="M3254 825 c-9 -21 3 -45 21 -45 16 0 36 39 28 53 -8 13 -43 7 -49 -8z"/>
<path d="M2745 740 c-20 -22 -33 -43 -66 -108 -24 -47 -62 -82 -89 -82 -27 0
-30 22 -13 87 20 75 14 93 -30 93 -26 0 -46 -10 -81 -41 -25 -22 -43 -34 -40
-25 3 9 3 27 0 41 -13 52 -113 19 -147 -49 -6 -11 4 -4 24 17 37 39 77 50 77
20 -1 -10 -9 -36 -20 -58 -25 -53 -26 -101 -1 -114 24 -13 36 1 45 50 12 70
100 159 127 132 8 -8 4 -27 -16 -68 -23 -45 -26 -62 -19 -83 8 -23 16 -27 51
-30 37 -3 47 2 86 38 l44 40 6 -29 c11 -52 91 -72 144 -34 14 10 34 23 45 29
11 7 15 13 10 15 -6 3 -8 19 -3 44 9 51 -2 105 -25 122 -28 20 -88 16 -109 -7z
m109 -12 c23 -32 21 -113 -3 -137 -11 -11 -17 -22 -14 -24 2 -3 -5 -11 -17
-17 -30 -16 -66 1 -72 34 -7 35 0 39 30 16 13 -11 29 -20 35 -20 5 0 -2 9 -17
21 -45 35 -49 54 -21 88 14 16 36 32 48 35 12 2 3 4 -20 3 -24 -2 -43 0 -43 4
0 28 74 26 94 -3z"/>
<path d="M3621 743 c-5 -10 -5 -26 -1 -39 7 -17 2 -33 -19 -66 -37 -58 -76
-88 -115 -88 -43 0 -56 16 -56 66 0 46 37 98 67 92 29 -5 26 -27 -9 -60 -18
-17 -24 -26 -13 -20 34 17 57 49 53 74 -2 19 -10 23 -45 26 -34 3 -47 -2 -76
-28 -20 -17 -41 -46 -47 -65 -21 -62 -101 -109 -117 -69 -3 9 2 40 12 69 14
41 15 57 6 74 -14 25 -31 28 -31 4 0 -10 -10 -34 -21 -53 -30 -49 -40 -87 -29
-116 8 -20 16 -24 50 -24 32 0 48 7 79 36 l40 35 15 -29 c18 -35 33 -42 88
-42 56 0 100 30 148 102 l40 60 16 -38 c12 -29 13 -39 4 -42 -9 -3 -9 -7 1
-13 19 -12 -23 -54 -45 -46 -23 9 -20 26 7 37 17 8 18 9 3 7 -10 -1 -24 -9
-29 -19 -28 -44 72 -69 113 -28 11 11 20 27 20 35 0 8 9 15 21 15 26 0 59 18
59 32 0 6 -8 4 -18 -5 -20 -18 -62 -23 -62 -8 0 5 -15 29 -34 54 -21 28 -31
49 -26 57 5 7 6 19 3 27 -7 19 -40 16 -52 -4z"/>
<path d="M2222 718 c0 -84 -64 -168 -127 -168 -31 0 -65 21 -65 40 0 5 19 19
42 32 79 43 91 108 21 108 -71 0 -133 -63 -133 -134 0 -76 112 -104 183 -45
l37 30 0 -25 c0 -26 29 -50 46 -38 13 9 34 86 40 146 4 37 1 53 -12 67 -24 27
-32 24 -32 -13z m-102 -26 c0 -20 -31 -52 -67 -71 -26 -13 -30 -3 -12 32 28
54 79 79 79 39z"/>
<path d="M2983 718 c6 -18 -20 -78 -46 -107 -12 -13 -16 -21 -8 -16 11 6 13 3
7 -18 -9 -36 2 -57 30 -57 18 0 24 5 24 23 0 52 77 167 111 167 5 0 6 -18 3
-39 -5 -34 -3 -41 16 -51 25 -13 33 -9 35 23 1 12 5 34 9 49 15 53 -48 50
-111 -5 -21 -18 -34 -25 -31 -16 4 9 0 26 -8 38 -16 23 -39 29 -31 9z"/>
<path d="M2497 107 c6 -75 11 -81 12 -15 1 31 -3 59 -7 62 -5 3 -7 -18 -5 -47z"/>
<path d="M2630 140 c-20 -20 -27 -64 -12 -74 5 -3 7 8 4 23 -7 48 40 78 72 45
37 -36 6 -101 -43 -89 -20 4 -22 3 -11 -5 8 -5 21 -10 28 -10 21 0 52 39 52
65 0 28 -32 65 -55 65 -8 0 -24 -9 -35 -20z"/>
<path d="M2822 144 c-45 -31 -17 -115 38 -114 8 1 0 7 -17 15 -29 12 -33 19
-33 50 0 31 4 38 33 50 17 8 25 14 17 15 -9 0 -26 -7 -38 -16z"/>
<path d="M2987 153 c-4 -3 -6 -31 -6 -62 1 -31 4 -44 6 -28 3 18 10 27 23 27
11 0 22 -11 28 -27 6 -16 11 -21 11 -13 0 8 -3 21 -8 29 -6 9 -5 21 2 32 8 13
8 22 1 29 -8 8 -10 4 -10 -12 1 -17 -5 -24 -21 -26 -19 -3 -23 1 -23 22 0 15
7 26 18 29 14 4 14 5 1 6 -9 0 -19 -2 -22 -6z"/>
<path d="M3355 146 c12 -8 16 -20 12 -35 -3 -11 -1 -19 4 -15 21 13 1 64 -25
64 -5 0 -2 -6 9 -14z"/>
<path d="M3701 142 c-17 -31 -13 -40 5 -14 9 13 14 26 11 29 -3 2 -10 -4 -16
-15z"/>
<path d="M1963 95 c0 -33 2 -45 4 -27 2 18 2 45 0 60 -2 15 -4 0 -4 -33z"/>
<path d="M2016 137 c3 -9 0 -25 -7 -34 -12 -14 -12 -16 1 -11 19 6 25 37 10
52 -8 8 -10 7 -4 -7z"/>
<path d="M2110 95 c0 -32 3 -56 6 -52 3 3 6 26 6 52 0 26 -3 49 -6 53 -3 3 -6
-21 -6 -53z"/>
<path d="M2190 126 c0 -15 -7 -26 -17 -29 -16 -4 -16 -5 -1 -6 10 -1 18 -12
21 -28 2 -16 5 -2 6 30 0 31 -1 57 -4 57 -3 0 -5 -11 -5 -24z"/>
<path d="M2291 119 c-15 -44 10 -89 49 -89 8 0 4 6 -10 13 -28 14 -40 68 -19
93 7 8 7 14 1 14 -5 0 -15 -14 -21 -31z"/>
<path d="M2368 140 c6 -8 12 -28 12 -45 0 -17 -6 -37 -12 -45 -11 -12 -10 -12
5 -1 10 8 17 27 17 46 0 19 -7 38 -17 46 -15 11 -16 11 -5 -1z"/>
<path d="M3165 138 c-26 -72 -33 -98 -25 -93 6 3 15 26 21 50 6 25 15 43 19
40 4 -2 13 -25 20 -50 7 -25 15 -43 17 -41 3 3 -3 27 -12 55 -16 50 -31 64
-40 39z"/>
<path d="M3310 95 c0 -32 3 -56 6 -52 8 7 7 97 -1 105 -3 3 -5 -21 -5 -53z"/>
<path d="M3542 120 c0 -19 2 -27 5 -17 2 9 2 25 0 35 -3 9 -5 1 -5 -18z"/>
<path d="M3641 145 c0 -5 6 -19 14 -29 8 -11 16 -34 16 -50 l1 -31 7 30 c4 17
3 35 -2 40 -4 6 -14 19 -22 30 -8 11 -14 16 -14 10z"/>
<path d="M2866 92 c7 -4 14 -18 17 -32 4 -21 4 -20 6 8 1 24 -3 32 -16 32 -12
0 -14 -3 -7 -8z"/>
<path d="M3498 93 c6 -2 18 -2 25 0 6 3 1 5 -13 5 -14 0 -19 -2 -12 -5z"/>
<path d="M3542 60 c0 -14 2 -19 5 -12 2 6 2 18 0 25 -3 6 -5 1 -5 -13z"/>
</g>
</svg>
